<?xml version="1.0" encoding="utf-8"?>
<!-- Generator: Adobe Illustrator 16.0.0, SVG Export Plug-In . SVG Version: 6.00 Build 0)  -->
<!DOCTYPE svg PUBLIC "-//W3C//DTD SVG 1.1//EN" "http://www.w3.org/Graphics/SVG/1.1/DTD/svg11.dtd">
<svg version="1.1" id="Capa_1" xmlns="http://www.w3.org/2000/svg" xmlns:xlink="http://www.w3.org/1999/xlink" x="0px" y="0px"
	 width="250px" height="250px" viewBox="0 0 250 250" enable-background="new 0 0 250 250" xml:space="preserve">
<g>
	<g>
		<linearGradient id="SVGID_1_" gradientUnits="userSpaceOnUse" x1="129.0029" y1="75.9111" x2="129.976" y2="58.7205">
			<stop  offset="0" style="stop-color:#A737D5"/>
			<stop  offset="1" style="stop-color:#EF497A"/>
		</linearGradient>
		<path fill="url(#SVGID_1_)" d="M116.406,55.016c-0.136,0.256-8.655,6.525-8.655,6.525s1.881,13.459,9.521,18.774
			c8.4,5.843,20.262-4.813,20.262-4.813s9.44,2.244,14.461-17.408c1.151-4.508-5.497-4.889-13.521-4.059
			C128.127,55.106,116.406,55.016,116.406,55.016z"/>
		<linearGradient id="SVGID_2_" gradientUnits="userSpaceOnUse" x1="129.3555" y1="101.5464" x2="129.3555" y2="219.1736">
			<stop  offset="0" style="stop-color:#FDF53F"/>
			<stop  offset="1" style="stop-color:#D93C65"/>
		</linearGradient>
		<path fill="url(#SVGID_2_)" d="M100.482,100.936c3.333-2.292,7.018-4.02,10.924-5.082c1.467-0.399,9.391,1.903,14.288,1.791
			c6.723-0.155,13.566-3.214,19.108-1.833c5.504,1.372,10.01,3.164,12.611,5.014c7.786,5.538,12.357,15.865,15.145,26.093
			c-5.275,5.416-11.914,7.822-11.914,7.822l-1.228,49.721l-29.4,15.042L96.46,182.655l1.202-48.589c0,0-10.657-4.962-11.438-6.768
			C85.442,125.494,91.081,107.399,100.482,100.936z"/>
		<linearGradient id="SVGID_3_" gradientUnits="userSpaceOnUse" x1="79.4238" y1="116.4385" x2="135.2923" y2="251.3934">
			<stop  offset="0" style="stop-color:#F9B776"/>
			<stop  offset="1" style="stop-color:#F47960"/>
		</linearGradient>
		<path fill="url(#SVGID_3_)" d="M86.72,127.082c0,0-14.28,39.589,18.283,55.859c6.761-0.897,4.161-12.126,4.161-12.126
			s-14.148-3.132-9.899-36.156C95.353,131.44,86.72,127.082,86.72,127.082z"/>
		
			<linearGradient id="SVGID_4_" gradientUnits="userSpaceOnUse" x1="-7805.541" y1="116.1475" x2="-7749.6719" y2="251.1035" gradientTransform="matrix(-1 0 0 1 -7627.0742 0)">
			<stop  offset="0" style="stop-color:#F9B776"/>
			<stop  offset="1" style="stop-color:#F47960"/>
		</linearGradient>
		<path fill="url(#SVGID_4_)" d="M171.871,127.082c0,0,9.826,41.326-18.283,55.859c-6.762-0.897-4.16-12.126-4.16-12.126
			s11.402-5.616,9.899-36.156C163.239,131.44,171.871,127.082,171.871,127.082z"/>
		<linearGradient id="SVGID_5_" gradientUnits="userSpaceOnUse" x1="129.0498" y1="133.9512" x2="126.1526" y2="251.2911">
			<stop  offset="0" style="stop-color:#2B3582"/>
			<stop  offset="1" style="stop-color:#150E42"/>
		</linearGradient>
		<path fill="url(#SVGID_5_)" d="M156.489,185.723h-56.362c-2.23,0-4.055-1.824-4.055-4.055v-35.431
			c0-2.229,1.825-4.055,4.055-4.055h56.362c2.229,0,4.055,1.825,4.055,4.055v35.431
			C160.544,183.898,158.719,185.723,156.489,185.723z"/>
		<g>
			
				<linearGradient id="SVGID_6_" gradientUnits="userSpaceOnUse" x1="167.7139" y1="173.2266" x2="198.2447" y2="173.2266" gradientTransform="matrix(1 0.0077 -0.0077 1 -3.7964 30.1348)">
				<stop  offset="0" style="stop-color:#2C759E"/>
				<stop  offset="1" style="stop-color:#051042"/>
			</linearGradient>
			<path fill="url(#SVGID_6_)" d="M188.822,198.631c-7.378-1.693-24.432-0.783-24.432-0.783l-0.693,1.878l-1.148,9.337
				c0,0,16.24,2.927,24.244,2.92c0.817-0.001,1.564-0.123,2.247-0.336c0.243-0.219,0.482-0.446,0.708-0.692
				C193.145,207.245,192.163,201.797,188.822,198.631z"/>
			
				<linearGradient id="SVGID_7_" gradientUnits="userSpaceOnUse" x1="201.9922" y1="173.6045" x2="175.1884" y2="173.2829" gradientTransform="matrix(1 0.0077 -0.0077 1 -3.7964 30.1348)">
				<stop  offset="0" style="stop-color:#53EAC9"/>
				<stop  offset="0.9964" style="stop-color:#45AED8"/>
			</linearGradient>
			<path fill="url(#SVGID_7_)" d="M189.553,198.815c-0.23-0.065-0.475-0.126-0.73-0.185c3.341,3.166,4.322,8.614,0.926,12.323
				c-0.226,0.246-0.465,0.474-0.708,0.692C195.045,209.777,195.756,200.561,189.553,198.815z"/>
			<linearGradient id="SVGID_8_" gradientUnits="userSpaceOnUse" x1="182.7334" y1="149.6094" x2="150.5088" y2="236.8932">
				<stop  offset="0" style="stop-color:#F9B776"/>
				<stop  offset="1" style="stop-color:#F47960"/>
			</linearGradient>
			<path fill="url(#SVGID_8_)" d="M159.491,197.322l2.888,0.123c1.551,0.066,3.014,0.822,4.057,2.098
				c1.043,1.274,1.58,2.962,1.488,4.681c-0.072,1.37-0.635,2.652-1.562,3.562c-0.928,0.91-2.145,1.371-3.379,1.283l-4.418-0.314
				L159.491,197.322z"/>
			<g>
				
					<linearGradient id="SVGID_9_" gradientUnits="userSpaceOnUse" x1="202.0537" y1="172.458" x2="175.2481" y2="172.1364" gradientTransform="matrix(1 0.0077 -0.0077 1 -3.7964 30.1348)">
					<stop  offset="0" style="stop-color:#53EAC9"/>
					<stop  offset="0.9964" style="stop-color:#45AED8"/>
				</linearGradient>
				<path fill="url(#SVGID_9_)" d="M174.957,207.239c-0.187-0.002-0.357-0.14-0.409-0.348c-0.738-2.952-3.604-5.921-3.634-5.95
					c-0.172-0.179-0.184-0.479-0.022-0.671c0.16-0.192,0.431-0.204,0.604-0.026c0.125,0.128,3.072,3.18,3.877,6.394
					c0.062,0.253-0.07,0.514-0.299,0.584C175.035,207.234,174.996,207.239,174.957,207.239z"/>
				
					<linearGradient id="SVGID_10_" gradientUnits="userSpaceOnUse" x1="201.9463" y1="172.2754" x2="175.2626" y2="171.9552" gradientTransform="matrix(1 0.0077 -0.0077 1 -3.7964 30.1348)">
					<stop  offset="0" style="stop-color:#53EAC9"/>
					<stop  offset="0.9964" style="stop-color:#45AED8"/>
				</linearGradient>
				<path fill="url(#SVGID_10_)" d="M171.055,206.998c-0.041,0-0.084-0.007-0.125-0.021c-0.226-0.078-0.352-0.344-0.281-0.595
					c0.967-3.434,4.604-6.179,4.759-6.294c0.195-0.146,0.462-0.088,0.593,0.129c0.133,0.218,0.08,0.512-0.115,0.658
					c-0.035,0.027-3.543,2.677-4.419,5.79C171.408,206.869,171.237,207,171.055,206.998z"/>
				
					<linearGradient id="SVGID_11_" gradientUnits="userSpaceOnUse" x1="227.8418" y1="-18.0547" x2="200.8529" y2="-18.3785" gradientTransform="matrix(0.9984 0.0564 -0.0564 0.9984 -31.5215 210.3076)">
					<stop  offset="0" style="stop-color:#53EAC9"/>
					<stop  offset="0.9964" style="stop-color:#45AED8"/>
				</linearGradient>
				<path fill="url(#SVGID_11_)" d="M182.792,207.699c-0.194-0.001-0.369-0.15-0.413-0.369c-0.608-2.988-3.341-6.109-3.368-6.141
					c-0.165-0.188-0.163-0.487,0.007-0.671c0.168-0.184,0.439-0.181,0.604,0.007c0.119,0.135,2.929,3.342,3.591,6.596
					c0.053,0.256-0.094,0.51-0.323,0.567C182.856,207.696,182.824,207.7,182.792,207.699z"/>
				
					<linearGradient id="SVGID_12_" gradientUnits="userSpaceOnUse" x1="227.5879" y1="-18.2373" x2="201.0316" y2="-18.556" gradientTransform="matrix(0.9984 0.0564 -0.0564 0.9984 -31.5215 210.3076)">
					<stop  offset="0" style="stop-color:#53EAC9"/>
					<stop  offset="0.9964" style="stop-color:#45AED8"/>
				</linearGradient>
				<path fill="url(#SVGID_12_)" d="M178.904,207.248c-0.048,0-0.096-0.01-0.145-0.029c-0.222-0.09-0.335-0.362-0.254-0.608
					c1.115-3.378,4.871-5.923,5.029-6.029c0.202-0.136,0.465-0.063,0.587,0.161s0.058,0.516-0.144,0.651
					c-0.037,0.024-3.657,2.481-4.669,5.544C179.246,207.131,179.08,207.25,178.904,207.248z"/>
			</g>
		</g>
		<g>
			
				<linearGradient id="SVGID_13_" gradientUnits="userSpaceOnUse" x1="-8400.8643" y1="122.2939" x2="-8370.3203" y2="122.2939" gradientTransform="matrix(-0.9998 -0.02 -0.02 0.9998 -8308.25 -85.7856)">
				<stop  offset="0" style="stop-color:#2C759E"/>
				<stop  offset="1" style="stop-color:#051042"/>
			</linearGradient>
			<path fill="url(#SVGID_13_)" d="M62.395,197.732c7.417-1.467,24.441-0.033,24.441-0.033l0.646,1.898l0.916,9.369
				c0,0-16.307,2.428-24.309,2.174c-0.816-0.025-1.56-0.171-2.237-0.404c-0.238-0.227-0.471-0.461-0.69-0.713
				C57.86,206.211,58.976,200.795,62.395,197.732z"/>
			
				<linearGradient id="SVGID_14_" gradientUnits="userSpaceOnUse" x1="-8366.5801" y1="122.6504" x2="-8393.2988" y2="122.3298" gradientTransform="matrix(-0.9998 -0.02 -0.02 0.9998 -8308.25 -85.7856)">
				<stop  offset="0" style="stop-color:#53EAC9"/>
				<stop  offset="0.9964" style="stop-color:#45AED8"/>
			</linearGradient>
			<path fill="url(#SVGID_14_)" d="M61.66,197.895c0.232-0.058,0.479-0.111,0.735-0.162c-3.419,3.062-4.535,8.479-1.233,12.291
				c0.219,0.252,0.452,0.486,0.69,0.713C55.896,208.684,55.416,199.449,61.66,197.895z"/>
			<linearGradient id="SVGID_15_" gradientUnits="userSpaceOnUse" x1="118.1675" y1="123.2974" x2="85.9227" y2="210.636">
				<stop  offset="0" style="stop-color:#F9B776"/>
				<stop  offset="1" style="stop-color:#F47960"/>
			</linearGradient>
			<path fill="url(#SVGID_15_)" d="M91.748,197.324l-2.89,0.034c-1.552,0.019-3.033,0.729-4.107,1.973
				c-1.074,1.243-1.653,2.913-1.604,4.634c0.038,1.372,0.568,2.671,1.473,3.608s2.108,1.437,3.346,1.386l4.424-0.178L91.748,197.324
				z"/>
			<g>
				
					<linearGradient id="SVGID_16_" gradientUnits="userSpaceOnUse" x1="-8366.5879" y1="121.5508" x2="-8393.3047" y2="121.2302" gradientTransform="matrix(-0.9998 -0.02 -0.02 0.9998 -8308.25 -85.7856)">
					<stop  offset="0" style="stop-color:#53EAC9"/>
					<stop  offset="0.9964" style="stop-color:#45AED8"/>
				</linearGradient>
				<path fill="url(#SVGID_16_)" d="M76.04,206.764c0.186,0.004,0.36-0.129,0.417-0.336c0.812-2.928,3.751-5.808,3.78-5.836
					c0.178-0.174,0.196-0.473,0.041-0.67c-0.156-0.197-0.426-0.217-0.604-0.045c-0.128,0.125-3.151,3.084-4.035,6.271
					c-0.069,0.251,0.058,0.517,0.283,0.594C75.962,206.756,76.001,206.762,76.04,206.764z"/>
				
					<linearGradient id="SVGID_17_" gradientUnits="userSpaceOnUse" x1="-8366.5391" y1="121.3687" x2="-8393.3076" y2="121.0474" gradientTransform="matrix(-0.9998 -0.02 -0.02 0.9998 -8308.25 -85.7856)">
					<stop  offset="0" style="stop-color:#53EAC9"/>
					<stop  offset="0.9964" style="stop-color:#45AED8"/>
				</linearGradient>
				<path fill="url(#SVGID_17_)" d="M79.947,206.643c0.042,0,0.083-0.006,0.125-0.018c0.228-0.072,0.359-0.334,0.295-0.586
					c-0.88-3.463-4.448-6.318-4.599-6.438c-0.192-0.152-0.459-0.104-0.596,0.11c-0.138,0.213-0.093,0.509,0.099,0.661
					c0.035,0.027,3.475,2.785,4.273,5.924C79.597,206.502,79.764,206.639,79.947,206.643z"/>
				
					<linearGradient id="SVGID_18_" gradientUnits="userSpaceOnUse" x1="-8332.79" y1="348.0488" x2="-8359.6777" y2="347.7262" gradientTransform="matrix(-0.9996 0.0288 0.0288 0.9996 -8285.3398 96.1035)">
					<stop  offset="0" style="stop-color:#53EAC9"/>
					<stop  offset="0.9964" style="stop-color:#45AED8"/>
				</linearGradient>
				<path fill="url(#SVGID_18_)" d="M68.197,206.983c0.194,0.005,0.373-0.14,0.423-0.357c0.682-2.968,3.491-6.004,3.52-6.034
					c0.169-0.182,0.174-0.482,0.01-0.671c-0.164-0.189-0.435-0.194-0.604-0.013c-0.123,0.132-3.012,3.251-3.754,6.483
					c-0.058,0.254,0.08,0.513,0.309,0.577C68.132,206.979,68.165,206.982,68.197,206.983z"/>
				
					<linearGradient id="SVGID_19_" gradientUnits="userSpaceOnUse" x1="-8332.9424" y1="347.8662" x2="-8359.5684" y2="347.5467" gradientTransform="matrix(-0.9996 0.0288 0.0288 0.9996 -8285.3398 96.1035)">
					<stop  offset="0" style="stop-color:#53EAC9"/>
					<stop  offset="0.9964" style="stop-color:#45AED8"/>
				</linearGradient>
				<path fill="url(#SVGID_19_)" d="M72.094,206.651c0.048,0.001,0.097-0.007,0.145-0.024c0.224-0.084,0.344-0.353,0.27-0.602
					c-1.031-3.41-4.72-6.069-4.877-6.181c-0.198-0.142-0.463-0.078-0.591,0.143c-0.127,0.22-0.07,0.515,0.128,0.655
					c0.036,0.025,3.593,2.594,4.529,5.686C71.756,206.523,71.918,206.647,72.094,206.651z"/>
			</g>
		</g>
		<linearGradient id="SVGID_20_" gradientUnits="userSpaceOnUse" x1="196.3936" y1="147.9199" x2="112.6158" y2="210.8534">
			<stop  offset="0" style="stop-color:#CB236D"/>
			<stop  offset="1" style="stop-color:#4C246D"/>
		</linearGradient>
		<path fill="url(#SVGID_20_)" d="M190.885,169.361c-3.346-7.7-11.529-8.951-18.494-5.35c-0.121,0.159-44.234,22.768-83.136,32.676
			c1.113,3.57,1.686,7.369,1.811,11.104c0.022,0.832,0.009,1.652-0.04,2.462c29.832-1.532,62.209-11.481,90.03-20.225
			C189.684,187.246,194.594,177.896,190.885,169.361z"/>
		<linearGradient id="SVGID_21_" gradientUnits="userSpaceOnUse" x1="120.6328" y1="204.3652" x2="98.6757" y2="148.3747">
			<stop  offset="0" style="stop-color:#CB236D"/>
			<stop  offset="1" style="stop-color:#4C246D"/>
		</linearGradient>
		<path fill="url(#SVGID_21_)" d="M159.703,208.376c-0.117-4.304,0.721-8.311,2.51-12.021c0.052-0.17,0.113-0.333,0.168-0.501
			c-2.223-0.688-5.092-1.62-8.862-2.899c-27.625-9.453-48.698-18.999-68.812-29.987c-7.813-4.269-16.698-1.408-19.199,7.837
			c-2.233,8.254,2.67,15.301,10.112,17.777c22.264,7.408,10.672,5.351,17.944,7.69c19.528,6.038,43.828,11.538,66.186,13.04
			C159.733,209,159.713,208.688,159.703,208.376z"/>
		<linearGradient id="SVGID_22_" gradientUnits="userSpaceOnUse" x1="128.4697" y1="127.582" x2="127.7263" y2="62.9029">
			<stop  offset="0" style="stop-color:#F9B776"/>
			<stop  offset="1" style="stop-color:#F47960"/>
		</linearGradient>
		<path fill="url(#SVGID_22_)" d="M111.406,95.854c0,0,2.971,12.874,17.395,12.607c14.691-0.268,16.002-12.649,16.002-12.649
			l-9.598-2.054l-0.802-10.693l-14.436,1.069l-0.267,10.158L111.406,95.854z"/>
		
			<linearGradient id="SVGID_23_" gradientUnits="userSpaceOnUse" x1="212.2793" y1="-562.7095" x2="214.595" y2="-618.9912" gradientTransform="matrix(0.987 0.1608 -0.1608 0.987 -173.6895 612.9395)">
			<stop  offset="0" style="stop-color:#F9B776"/>
			<stop  offset="1" style="stop-color:#F47960"/>
		</linearGradient>
		<path fill="url(#SVGID_23_)" d="M121.994,52.768c0,0-16.543,32.045,3.081,39.819c13.842,5.484,22.521-21.28,19.932-28.529
			c-4.001-11.208-6.638-9.878-6.638-9.878L121.994,52.768z"/>
		<linearGradient id="SVGID_24_" gradientUnits="userSpaceOnUse" x1="138.6172" y1="22.6113" x2="132.0491" y2="48.6404">
			<stop  offset="0" style="stop-color:#A737D5"/>
			<stop  offset="1" style="stop-color:#EF497A"/>
		</linearGradient>
		<path fill="url(#SVGID_24_)" d="M148.988,49.852c8.172,2.246,1.188,19.971-11.116,15.779c-12.305-4.191-17.14-4.13-19.057-0.751
			c-1.918,3.379-2.33,15.377-6.49,9.447c-4.562-6.502-7.104-19.552-1.512-23.759c4.998-3.76,6.164-9.589,12.158-9.387
			c7.957,0.268,14.11-3.259,17.702-0.715C144.799,43.386,142.975,48.199,148.988,49.852z"/>
		
			<linearGradient id="SVGID_25_" gradientUnits="userSpaceOnUse" x1="-143.5825" y1="546.3633" x2="-139.9538" y2="458.1698" gradientTransform="matrix(0.9911 -0.1329 0.1329 0.9911 188.4941 -461.5762)">
			<stop  offset="0" style="stop-color:#F9B776"/>
			<stop  offset="1" style="stop-color:#F47960"/>
		</linearGradient>
		<path fill="url(#SVGID_25_)" d="M118.058,67.635c0,0-3.528-3.796-4.093,0.779c-0.565,4.576,1.248,10.468,3.373,7.238
			S118.058,67.635,118.058,67.635z"/>
	</g>
	<linearGradient id="SVGID_26_" gradientUnits="userSpaceOnUse" x1="128.7236" y1="124.8804" x2="126.8461" y2="214.7289">
		<stop  offset="0" style="stop-color:#53D8FF"/>
		<stop  offset="1" style="stop-color:#3840F7"/>
	</linearGradient>
	<path fill="url(#SVGID_26_)" d="M132.111,153.974c0.342,2.31-0.896,4.407-3.206,4.749s-4.459-1.254-4.801-3.564
		c-0.342-2.31,0.715-4.604,3.025-4.945C129.439,149.871,131.77,151.664,132.111,153.974z"/>
</g>
</svg>
