<?xml version="1.0" standalone="no"?>
<!DOCTYPE svg PUBLIC "-//W3C//DTD SVG 20010904//EN"
 "http://www.w3.org/TR/2001/REC-SVG-20010904/DTD/svg10.dtd">
<svg version="1.0" xmlns="http://www.w3.org/2000/svg"
 width="256.000000pt" height="256.000000pt" viewBox="0 0 256.000000 256.000000"
 preserveAspectRatio="xMidYMid meet">
<metadata>
Created by potrace 1.11, written by Peter Selinger 2001-2013
</metadata>
<g transform="translate(0.000000,256.000000) scale(0.100000,-0.100000)"
fill="#000000" stroke="none">
<path d="M1241 2521 l-21 -21 0 -1070 c0 -1057 0 -1070 20 -1090 11 -11 25
-20 30 -20 6 0 10 -37 10 -90 0 -69 -3 -90 -13 -90 -20 0 -47 -33 -47 -58 0
-12 9 -31 20 -42 19 -19 33 -20 278 -20 201 0 262 3 277 13 14 11 20 33 25 98
7 89 16 112 58 144 23 17 48 21 167 25 154 6 180 14 234 72 50 53 58 95 60
288 l1 173 46 49 c49 53 74 101 74 147 0 16 -18 114 -40 217 -23 104 -43 205
-46 224 -3 19 -7 37 -9 40 -2 3 -6 23 -9 45 -13 85 -65 274 -96 348 -104 251
-320 463 -571 561 -123 48 -187 62 -340 73 -79 5 -88 4 -108 -16z"/>
<path d="M848 2355 c-120 -64 -142 -219 -46 -315 117 -117 313 -48 335 118 15
111 -69 210 -186 218 -46 4 -65 0 -103 -21z"/>
<path d="M341 2080 c-108 -50 -150 -163 -100 -268 41 -83 143 -129 234 -104
l40 11 101 -101 102 -100 173 -1 c167 0 173 1 191 23 22 27 23 49 4 76 -13 17
-29 19 -158 21 -79 1 -148 2 -154 2 -6 1 -48 38 -93 83 -71 71 -81 86 -76 108
22 83 10 142 -37 196 -60 68 -150 90 -227 54z"/>
<path d="M171 1467 c-50 -19 -109 -82 -122 -129 -11 -44 -8 -96 10 -141 16
-42 78 -95 124 -108 89 -24 195 20 231 96 l17 35 314 0 c302 0 316 1 335 20
25 25 25 55 0 80 -19 19 -33 20 -334 20 l-315 0 -22 40 c-12 22 -39 51 -58 64
-44 31 -130 41 -180 23z"/>
<path d="M615 939 l-103 -101 -38 11 c-59 16 -85 14 -142 -15 -71 -35 -107
-95 -107 -179 0 -218 296 -270 381 -66 17 40 18 87 3 130 -11 31 -10 33 72
115 l84 83 148 1 c127 0 151 2 167 17 26 23 25 60 0 85 -18 18 -33 20 -191 20
l-172 0 -102 -101z"/>
<path d="M853 556 c-101 -47 -138 -155 -90 -259 33 -72 88 -109 167 -113 188
-8 281 213 143 342 -61 58 -137 68 -220 30z"/>
</g>
</svg>
